<svg xmlns="http://www.w3.org/2000/svg" xmlns:xlink="http://www.w3.org/1999/xlink" version="1.1" width="256" height="256" viewBox="0 0 256 256" xml:space="preserve">

<defs>
</defs>
<g style="stroke: none; stroke-width: 0; stroke-dasharray: none; stroke-linecap: butt; stroke-linejoin: miter; stroke-miterlimit: 10; fill: none; fill-rule: nonzero; opacity: 1;" transform="translate(1.4065934065934016 1.4065934065934016) scale(2.81 2.81)" >
	<path d="M 45 55.72 c -0.829 0 -1.5 -0.672 -1.5 -1.5 v -9.495 c 0 -0.829 0.671 -1.5 1.5 -1.5 s 1.5 0.671 1.5 1.5 v 9.495 C 46.5 55.048 45.829 55.72 45 55.72 z" style="stroke: none; stroke-width: 1; stroke-dasharray: none; stroke-linecap: butt; stroke-linejoin: miter; stroke-miterlimit: 10; fill: rgb(0,0,0); fill-rule: nonzero; opacity: 1;" transform=" matrix(1 0 0 1 0 0) " stroke-linecap="round" />
	<path d="M 45 46.225 c -3.439 0 -6.237 -2.798 -6.237 -6.237 c 0 -4.236 4.057 -4.236 6.237 -4.236 s 6.236 0 6.236 4.236 C 51.236 43.427 48.438 46.225 45 46.225 z M 45 38.751 c -3.237 0 -3.237 0.387 -3.237 1.236 c 0 1.785 1.452 3.237 3.237 3.237 c 1.784 0 3.236 -1.452 3.236 -3.237 C 48.236 39.139 48.236 38.751 45 38.751 z" style="stroke: none; stroke-width: 1; stroke-dasharray: none; stroke-linecap: butt; stroke-linejoin: miter; stroke-miterlimit: 10; fill: rgb(0,0,0); fill-rule: nonzero; opacity: 1;" transform=" matrix(1 0 0 1 0 0) " stroke-linecap="round" />
	<path d="M 45 69.644 c -7.72 0 -14 -5.125 -14 -11.424 c 0 -0.413 0.17 -0.808 0.471 -1.092 c 0.3 -0.283 0.699 -0.429 1.117 -0.405 c 4.859 0.275 8.582 -0.886 11.369 -3.581 c 0.594 -0.574 1.543 -0.56 2.121 0.035 c 0.576 0.596 0.561 1.545 -0.035 2.121 c -3.017 2.919 -7 4.417 -11.858 4.464 c 0.949 3.911 5.438 6.882 10.815 6.882 c 0.829 0 1.5 0.672 1.5 1.5 S 45.829 69.644 45 69.644 z" style="stroke: none; stroke-width: 1; stroke-dasharray: none; stroke-linecap: butt; stroke-linejoin: miter; stroke-miterlimit: 10; fill: rgb(0,0,0); fill-rule: nonzero; opacity: 1;" transform=" matrix(1 0 0 1 0 0) " stroke-linecap="round" />
	<path d="M 32.686 39.087 c -0.829 0 -1.5 -0.671 -1.5 -1.5 c 0 -1.757 -1.429 -3.186 -3.186 -3.186 s -3.186 1.429 -3.186 3.186 c 0 0.829 -0.671 1.5 -1.5 1.5 s -1.5 -0.671 -1.5 -1.5 c 0 -3.411 2.775 -6.186 6.186 -6.186 s 6.186 2.775 6.186 6.186 C 34.186 38.416 33.515 39.087 32.686 39.087 z" style="stroke: none; stroke-width: 1; stroke-dasharray: none; stroke-linecap: butt; stroke-linejoin: miter; stroke-miterlimit: 10; fill: rgb(0,0,0); fill-rule: nonzero; opacity: 1;" transform=" matrix(1 0 0 1 0 0) " stroke-linecap="round" />
	<path d="M 66.686 39.087 c -0.828 0 -1.5 -0.671 -1.5 -1.5 c 0 -1.757 -1.429 -3.186 -3.186 -3.186 s -3.186 1.429 -3.186 3.186 c 0 0.829 -0.672 1.5 -1.5 1.5 s -1.5 -0.671 -1.5 -1.5 c 0 -3.411 2.774 -6.186 6.186 -6.186 s 6.186 2.775 6.186 6.186 C 68.186 38.416 67.514 39.087 66.686 39.087 z" style="stroke: none; stroke-width: 1; stroke-dasharray: none; stroke-linecap: butt; stroke-linejoin: miter; stroke-miterlimit: 10; fill: rgb(0,0,0); fill-rule: nonzero; opacity: 1;" transform=" matrix(1 0 0 1 0 0) " stroke-linecap="round" />
	<path d="M 45 69.644 c -0.829 0 -1.5 -0.672 -1.5 -1.5 s 0.671 -1.5 1.5 -1.5 c 5.378 0 9.866 -2.971 10.815 -6.882 c -4.859 -0.047 -8.842 -1.545 -11.858 -4.464 c -0.595 -0.576 -0.611 -1.525 -0.035 -2.121 c 0.577 -0.595 1.526 -0.609 2.121 -0.035 c 2.786 2.695 6.498 3.855 11.369 3.581 c 0.407 -0.027 0.816 0.122 1.117 0.405 C 58.83 57.412 59 57.807 59 58.22 C 59 64.519 52.72 69.644 45 69.644 z" style="stroke: none; stroke-width: 1; stroke-dasharray: none; stroke-linecap: butt; stroke-linejoin: miter; stroke-miterlimit: 10; fill: rgb(0,0,0); fill-rule: nonzero; opacity: 1;" transform=" matrix(1 0 0 1 0 0) " stroke-linecap="round" />
	<path d="M 45 87.649 c -20.147 0 -37.622 -12.647 -43.482 -31.471 c -0.123 -0.396 -0.077 -0.825 0.127 -1.186 s 0.548 -0.621 0.951 -0.719 c 2.255 -0.547 3.658 -1.226 5.13 -2.627 c -2.288 -0.957 -4.281 -2.481 -5.946 -4.554 c -0.485 -0.604 -0.431 -1.479 0.127 -2.018 c 3.249 -3.141 5.216 -6.354 4.948 -12.548 C 2.662 25.473 0.418 16.164 0.001 4.089 c -0.027 -0.782 0.552 -1.454 1.33 -1.542 c 9.814 -1.117 17.926 2.583 24.114 10.996 c 0.491 0.667 0.348 1.606 -0.32 2.097 c -0.666 0.49 -1.605 0.348 -2.097 -0.32 C 17.742 8.135 11.203 4.877 3.057 5.404 c 0.526 11.04 2.676 19.52 6.559 25.893 c 0.128 0.21 0.203 0.45 0.217 0.696 c 0.386 6.861 -1.604 10.792 -4.831 14.219 c 1.617 1.654 3.545 2.752 5.749 3.271 c 0.506 0.119 0.914 0.491 1.079 0.983 c 0.165 0.493 0.063 1.036 -0.269 1.436 c -2.164 2.604 -3.989 3.959 -6.694 4.847 c 5.899 16.753 21.833 27.9 40.133 27.9 c 0.829 0 1.5 0.672 1.5 1.5 S 45.829 87.649 45 87.649 z" style="stroke: none; stroke-width: 1; stroke-dasharray: none; stroke-linecap: butt; stroke-linejoin: miter; stroke-miterlimit: 10; fill: rgb(0,0,0); fill-rule: nonzero; opacity: 1;" transform=" matrix(1 0 0 1 0 0) " stroke-linecap="round" />
	<path d="M 74.026 23.342 c -0.497 0 -0.983 -0.247 -1.269 -0.698 C 68.339 15.656 57.185 10.96 45 10.96 s -23.339 4.695 -27.757 11.684 c -0.442 0.7 -1.368 0.909 -2.07 0.466 c -0.7 -0.443 -0.909 -1.37 -0.466 -2.07 C 19.73 13.095 31.621 7.96 45 7.96 s 25.27 5.134 30.293 13.08 c 0.443 0.7 0.234 1.627 -0.466 2.07 C 74.578 23.268 74.301 23.342 74.026 23.342 z" style="stroke: none; stroke-width: 1; stroke-dasharray: none; stroke-linecap: butt; stroke-linejoin: miter; stroke-miterlimit: 10; fill: rgb(0,0,0); fill-rule: nonzero; opacity: 1;" transform=" matrix(1 0 0 1 0 0) " stroke-linecap="round" />
	<path d="M 9.911 21.253 c -0.613 0 -1.189 -0.379 -1.41 -0.99 c -0.764 -2.109 -1.572 -4.785 -1.775 -8.647 c -0.024 -0.469 0.172 -0.922 0.53 -1.225 c 0.359 -0.303 0.837 -0.421 1.296 -0.317 c 4.62 1.037 9.001 3.699 11.72 7.122 c 0.515 0.649 0.407 1.592 -0.242 2.108 c -0.649 0.514 -1.592 0.406 -2.108 -0.242 c -1.911 -2.406 -4.812 -4.374 -8.011 -5.485 c 0.307 2.375 0.87 4.176 1.409 5.665 c 0.282 0.779 -0.121 1.639 -0.899 1.921 C 10.253 21.224 10.081 21.253 9.911 21.253 z" style="stroke: none; stroke-width: 1; stroke-dasharray: none; stroke-linecap: butt; stroke-linejoin: miter; stroke-miterlimit: 10; fill: rgb(0,0,0); fill-rule: nonzero; opacity: 1;" transform=" matrix(1 0 0 1 0 0) " stroke-linecap="round" />
	<path d="M 45 87.649 c -0.829 0 -1.5 -0.672 -1.5 -1.5 s 0.671 -1.5 1.5 -1.5 c 18.3 0 34.233 -11.147 40.133 -27.9 c -2.705 -0.888 -4.53 -2.243 -6.694 -4.847 c -0.332 -0.399 -0.434 -0.942 -0.27 -1.436 c 0.165 -0.492 0.573 -0.864 1.079 -0.983 c 2.204 -0.52 4.134 -1.617 5.75 -3.271 c -3.228 -3.427 -5.217 -7.357 -4.831 -14.219 c 0.015 -0.246 0.089 -0.485 0.217 -0.696 c 3.883 -6.374 6.033 -14.855 6.559 -25.893 c -8.15 -0.524 -14.686 2.731 -19.97 9.916 c -0.491 0.667 -1.43 0.811 -2.097 0.32 c -0.667 -0.491 -0.811 -1.43 -0.319 -2.097 C 70.743 5.13 78.851 1.427 88.67 2.547 c 0.777 0.088 1.356 0.76 1.329 1.542 c -0.417 12.074 -2.659 21.382 -6.854 28.439 c -0.268 6.193 1.699 9.406 4.948 12.548 c 0.557 0.539 0.612 1.413 0.126 2.018 c -1.664 2.072 -3.657 3.597 -5.945 4.554 c 1.473 1.402 2.876 2.08 5.13 2.627 c 0.403 0.098 0.747 0.358 0.951 0.719 c 0.205 0.36 0.251 0.789 0.128 1.186 C 82.622 75.002 65.147 87.649 45 87.649 z" style="stroke: none; stroke-width: 1; stroke-dasharray: none; stroke-linecap: butt; stroke-linejoin: miter; stroke-miterlimit: 10; fill: rgb(0,0,0); fill-rule: nonzero; opacity: 1;" transform=" matrix(1 0 0 1 0 0) " stroke-linecap="round" />
	<path d="M 80.089 21.253 c -0.17 0 -0.343 -0.029 -0.511 -0.09 c -0.779 -0.282 -1.182 -1.143 -0.899 -1.921 c 0.539 -1.487 1.103 -3.287 1.409 -5.664 c -3.199 1.111 -6.101 3.079 -8.011 5.484 c -0.515 0.65 -1.46 0.757 -2.107 0.242 c -0.649 -0.515 -0.757 -1.459 -0.242 -2.107 c 2.718 -3.423 7.1 -6.085 11.721 -7.122 c 0.456 -0.103 0.938 0.014 1.296 0.317 c 0.358 0.303 0.555 0.756 0.53 1.225 c -0.203 3.865 -1.012 6.54 -1.775 8.647 C 81.278 20.874 80.702 21.253 80.089 21.253 z" style="stroke: none; stroke-width: 1; stroke-dasharray: none; stroke-linecap: butt; stroke-linejoin: miter; stroke-miterlimit: 10; fill: rgb(0,0,0); fill-rule: nonzero; opacity: 1;" transform=" matrix(1 0 0 1 0 0) " stroke-linecap="round" />
</g>
</svg>