<svg version="1.1" viewBox="0.0 0.0 960.0 720.0" fill="none" stroke="none" stroke-linecap="square" stroke-miterlimit="10" xmlns:xlink="http://www.w3.org/1999/xlink" xmlns="http://www.w3.org/2000/svg"><clipPath id="p.0"><path d="m0 0l960.0 0l0 720.0l-960.0 0l0 -720.0z" clip-rule="nonzero"/></clipPath><g clip-path="url(#p.0)"><path fill="#000000" fill-opacity="0.0" d="m0 0l960.0 0l0 720.0l-960.0 0z" fill-rule="evenodd"/><path fill="#8696a0" d="m14.488189 155.88496l0 0c0 -12.599869 10.214223 -22.814102 22.814102 -22.814102l885.3954 0c6.05072 0 11.853577 2.4036255 16.132019 6.6820984c4.2785034 4.278473 6.682129 10.081329 6.682129 16.132004l0 91.25369c0 12.599869 -10.214233 22.814102 -22.814148 22.814102l-885.3954 0c-12.59988 0 -22.814102 -10.214233 -22.814102 -22.814102z" fill-rule="evenodd"/><path stroke="#000000" stroke-width="1.0" stroke-linejoin="round" stroke-linecap="butt" d="m14.488189 155.88496l0 0c0 -12.599869 10.214223 -22.814102 22.814102 -22.814102l885.3954 0c6.05072 0 11.853577 2.4036255 16.132019 6.6820984c4.2785034 4.278473 6.682129 10.081329 6.682129 16.132004l0 91.25369c0 12.599869 -10.214233 22.814102 -22.814148 22.814102l-885.3954 0c-12.59988 0 -22.814102 -10.214233 -22.814102 -22.814102z" fill-rule="evenodd"/><path fill="#8696a0" d="m255.68242 374.34167l0 0c0 -12.599884 10.214218 -22.814117 22.814102 -22.814117l390.65527 0c6.050659 0 11.853516 2.4036255 16.131958 6.6820984c4.2785034 4.278473 6.682129 10.081329 6.682129 16.132019l0 91.25366c0 12.599884 -10.214233 22.814117 -22.814087 22.814117l-390.65527 0c-12.599884 0 -22.814102 -10.214233 -22.814102 -22.814117z" fill-rule="evenodd"/><path stroke="#000000" stroke-width="1.0" stroke-linejoin="round" stroke-linecap="butt" d="m255.68242 374.34167l0 0c0 -12.599884 10.214218 -22.814117 22.814102 -22.814117l390.65527 0c6.050659 0 11.853516 2.4036255 16.131958 6.6820984c4.2785034 4.278473 6.682129 10.081329 6.682129 16.132019l0 91.25366c0 12.599884 -10.214233 22.814117 -22.814087 22.814117l-390.65527 0c-12.599884 0 -22.814102 -10.214233 -22.814102 -22.814117z" fill-rule="evenodd"/><path fill="#8696a0" d="m346.93176 571.4099l0 0c0 -12.599915 10.214233 -22.814087 22.814087 -22.814087l192.48206 0c6.050659 0 11.853516 2.4036255 16.132019 6.682068c4.2784424 4.2785034 6.682068 10.08136 6.682068 16.132019l0 91.25366c0 12.599915 -10.214233 22.814087 -22.814087 22.814087l-192.48206 0c-12.5998535 0 -22.814087 -10.214172 -22.814087 -22.814087z" fill-rule="evenodd"/><path stroke="#000000" stroke-width="1.0" stroke-linejoin="round" stroke-linecap="butt" d="m346.93176 571.4099l0 0c0 -12.599915 10.214233 -22.814087 22.814087 -22.814087l192.48206 0c6.050659 0 11.853516 2.4036255 16.132019 6.682068c4.2784424 4.2785034 6.682068 10.08136 6.682068 16.132019l0 91.25366c0 12.599915 -10.214233 22.814087 -22.814087 22.814087l-192.48206 0c-12.5998535 0 -22.814087 -10.214172 -22.814087 -22.814087z" fill-rule="evenodd"/></g></svg>